<?xml version="1.0" encoding="UTF-8"?>
<svg width="424pt" version="1.1" xmlns="http://www.w3.org/2000/svg" height="84pt" viewBox="0 0 424 84" xmlns:xlink="http://www.w3.org/1999/xlink">
 <defs/>
 <g id="Background">
  <path style="fill:#161413; fill-rule:nonzero;stroke:none;" d="M0 0 L0 12.9229 C36.139 15.4336 63.43 26.8204 63.43 40.4942 C63.43 54.168 36.139 65.5547 0 68.0665 L0 80.9883 C55.913 78.3526 99.082 61.2344 99.082 40.4942 C99.082 19.7549 55.913 2.63672 0 0 Z" transform="translate(323.634, 1.54785)"/>
  <path style="fill:#161413; fill-rule:nonzero;stroke:none;" d="M2.266 70.3076 L2.266 80.9844 C57.548 78.169 99.083 61.3477 99.083 41.6807 C99.083 22.0137 57.548 5.19238 2.266 2.37597 L2.266 13.0547 C39.67 15.836 65.697 27.5518 65.697 41.6807 C65.697 55.8106 39.67 67.5254 2.266 70.3076 Z M0 83.3633 L0 68.1944 L1.056 68.1211 C36.616 65.6514 63.431 54.2862 63.431 41.6807 C63.431 29.0772 36.616 17.71 1.056 15.2393 L0 15.1651 L0 0 L1.186 0.054688 C59.225 2.79101 101.348 20.2969 101.348 41.6807 C101.348 63.0645 59.225 80.5703 1.186 83.3057 L0 83.3633 Z" transform="translate(322.5, 0.361328)"/>
  <path style="fill:#161413; fill-rule:nonzero;stroke:none;" d="M0 40.4942 C0 61.2344 43.168 78.3526 99.0822 80.9883 L99.0822 68.0665 C67.8086 65.8925 43.1777 57.0723 37.1074 45.876 L98.8242 45.876 L98.8242 35.1132 L37.1074 35.1132 C43.1777 23.9169 67.8086 15.0957 99.0822 12.9229 L99.0822 0 C43.168 2.63672 0 19.7549 0 40.4942 Z" transform="translate(1.13281, 1.54785)"/>
  <path style="fill:#161413; fill-rule:nonzero;stroke:none;" d="M99.082 2.37597 C43.8018 5.19238 2.26563 22.0137 2.26563 41.6807 C2.26563 61.3477 43.8018 78.169 99.082 80.9844 L99.082 70.3047 C67.6885 67.9658 43.4746 59.0948 37.2441 47.6016 L36.3369 45.9287 L98.8242 45.9287 L98.8242 37.4317 L36.3369 37.4317 L37.2441 35.7588 C43.4766 24.2657 67.6895 15.3936 99.082 13.0547 L99.082 2.37597 Z M101.348 83.3633 L100.162 83.3057 C42.124 80.5703 0 63.0645 0 41.6807 C0 20.2969 42.124 2.79101 100.162 0.054688 L101.348 0 L101.348 15.1651 L100.294 15.2393 C71.2256 17.2588 47.667 25.1621 40.3047 35.166 L101.09 35.166 L101.09 48.1944 L40.3037 48.1944 C47.665 58.1983 71.2236 66.1006 100.294 68.1211 L101.348 68.1944 L101.348 83.3633 Z" transform="translate(0, 0.361328)"/>
  <path style="fill:#e20010; fill-rule:nonzero;stroke:none;" d="M0 0 L0 12.9229 C36.14 15.4336 63.43 26.8204 63.43 40.4942 C63.43 54.168 36.14 65.5547 0 68.0665 L0 80.9883 C34.418 79.3653 63.988 72.251 81.651 62.1856 C99.315 72.251 128.884 79.3653 163.303 80.9883 L163.303 68.0665 C127.163 65.5547 99.873 54.168 99.873 40.4942 C99.873 26.8204 127.163 15.4336 163.303 12.9229 L163.303 0 C128.884 1.62305 99.315 8.73825 81.651 18.8027 C63.988 8.73825 34.418 1.62305 0 0 Z" transform="translate(130.273, 1.54785)"/>
  <path style="fill:#e20010; fill-rule:nonzero;stroke:none;" d="M2.266 70.3076 L2.266 80.9844 C35.312 79.3028 64.402 72.542 82.224 62.3877 L82.785 62.0684 L83.346 62.3877 C101.167 72.542 130.257 79.3028 163.303 80.9844 L163.303 70.3076 C125.9 67.5254 99.872 55.8106 99.872 41.6807 C99.872 27.5518 125.9 15.836 163.303 13.0547 L163.303 2.37597 C130.252 4.06152 101.162 10.8203 83.346 20.9737 L82.785 21.294 L82.224 20.9737 C64.406 10.8203 35.315 4.06152 2.266 2.37597 L2.266 13.0547 C39.67 15.836 65.696 27.5518 65.696 41.6807 C65.696 55.8106 39.67 67.5254 2.266 70.3076 Z M165.569 83.3633 L164.383 83.3057 C130.848 81.7256 101.165 74.9434 82.785 64.6729 C64.404 74.9434 34.722 81.7256 1.186 83.3057 L0 83.3633 L0 68.1944 L1.055 68.1211 C36.615 65.6514 63.43 54.2862 63.43 41.6807 C63.43 29.0772 36.615 17.71 1.055 15.2393 L0 15.1651 L0 0 L1.186 0.054688 C34.725 1.63672 64.407 8.4209 82.785 18.6885 C101.16 8.4209 130.843 1.63672 164.383 0.054688 L165.569 0 L165.569 15.1651 L164.514 15.2393 C128.954 17.71 102.138 29.0772 102.138 41.6807 C102.138 54.2862 128.954 65.6514 164.514 68.1211 L165.569 68.1944 L165.569 83.3633 Z" transform="translate(129.14, 0.361328)"/>
 </g>
</svg>
